<svg width="173" height="110" viewBox="0 0 295 110" fill="none" xmlns="http://www.w3.org/2000/svg">
<path d="M103.469 38.152H12.1041C9.84846 38.152 8.0201 39.828 8.0201 41.8957V51.9519H107.553V41.8957C107.553 39.828 105.724 38.152 103.469 38.152Z" fill="#FFB125"/>
<path d="M70.2988 17.3618L62.0249 94.1423C61.817 96.071 59.9429 97.4802 57.8389 97.2896L15.916 93.4935C13.812 93.303 12.2747 91.5851 12.4826 89.6564L20.7565 12.8758C20.9644 10.9472 22.8385 9.538 24.9425 9.72857L66.8654 13.5246C68.9694 13.7152 70.5067 15.4331 70.2988 17.3618Z" fill="#B6FA4C"/>
<path d="M66.8654 13.5246L24.9425 9.72857C22.8385 9.538 20.9642 10.9472 20.7565 12.8758L20.0143 19.7644C20.6431 19.4715 21.3659 19.3315 22.1201 19.3998L64.0431 23.1959C66.1471 23.3864 67.6843 25.1043 67.4765 27.033L59.9448 96.925C61.0707 96.4006 61.8918 95.3799 62.0251 94.1423L70.299 17.362C70.5067 15.4331 68.9694 13.7152 66.8654 13.5246Z" fill="#A8E83A"/>
<path d="M25.2 23.7631L19.1639 79.7764C19.0775 80.5782 19.4895 81.3596 20.2353 81.7856C22.2907 82.9602 23.8821 84.7225 24.7568 86.7915C25.0711 87.535 25.8223 88.0479 26.6879 88.1263L48.4205 90.0943C49.2863 90.1727 50.1322 89.8044 50.5993 89.1316C51.8987 87.2594 53.8356 85.8167 56.102 85.0334C56.9244 84.7492 57.4951 84.0567 57.5813 83.2551L63.6174 27.2418C63.7039 26.44 63.2919 25.6586 62.5461 25.2326C60.4907 24.058 58.8992 22.2957 58.0246 20.2267C57.7103 19.4831 56.9591 18.9703 56.0935 18.8919L34.3608 16.9239C33.4951 16.8455 32.6492 17.2137 32.1821 17.8866C30.8827 19.7588 28.9458 21.2015 26.6794 21.9848C25.857 22.269 25.2863 22.9613 25.2 23.7631Z" fill="#77DD00"/>
<path d="M62.5461 25.2324C60.4907 24.0578 58.8993 22.2955 58.0246 20.2265C57.7103 19.4829 56.9591 18.9701 56.0935 18.8917L34.3608 16.9237C33.4951 16.8453 32.6492 17.2135 32.1821 17.8864C30.8827 19.7586 28.9458 21.2013 26.6794 21.9846C25.857 22.2688 25.2865 22.9613 25.2 23.7628L24.9704 25.8952L53.1299 28.3654C53.9956 28.4439 54.7466 28.9567 55.0609 29.7003C55.9356 31.7692 57.527 33.5314 59.5825 34.7061C60.3282 35.1324 60.74 35.9138 60.6538 36.7154L55.4188 85.2955C55.6433 85.2018 55.8704 85.1133 56.1022 85.0332C56.9246 84.7489 57.4953 84.0565 57.5816 83.2549L63.6177 27.2416C63.7037 26.44 63.2919 25.6586 62.5461 25.2324Z" fill="#73CC00"/>
<path d="M105.845 28.8011L58.4464 92.5583C57.2558 94.16 54.8743 94.5733 53.1271 93.4819L18.315 71.7354C16.5678 70.644 16.1168 68.461 17.3075 66.8593L64.7061 3.10213C65.8968 1.50047 68.2783 1.08711 70.0255 2.17851L104.838 23.925C106.585 25.0165 107.036 27.1995 105.845 28.8011Z" fill="#B6FA4C"/>
<path d="M104.838 23.925L70.0253 2.1783C68.278 1.0869 65.8965 1.50047 64.7059 3.10192L60.6517 8.55574C61.0035 8.65672 61.3454 8.80517 61.6661 9.00519L96.4781 30.7517C98.2254 31.8431 98.6763 34.0262 97.4857 35.6278L54.1414 93.9314C55.708 94.3806 57.4743 93.8659 58.4465 92.5581L105.845 28.8009C107.036 27.1995 106.585 25.0165 104.838 23.925Z" fill="#A8E83A"/>
<path d="M62.915 14.6098L28.3365 61.1223C27.8415 61.7881 27.7946 62.6548 28.2263 63.3565C29.4165 65.2903 29.892 67.5363 29.5782 69.7363C29.4654 70.5269 29.8564 71.307 30.5752 71.7562L48.6217 83.0295C49.3405 83.4785 50.2756 83.5269 51.0371 83.1415C53.1561 82.069 55.6105 81.6535 58.0091 81.9615C58.8796 82.0733 59.7423 81.7162 60.2373 81.0504L94.8159 34.5379C95.3109 33.8721 95.3577 33.0054 94.926 32.3037C93.7359 30.3699 93.2603 28.124 93.5742 25.9239C93.6869 25.1333 93.296 24.3532 92.5771 23.904L74.5307 12.6307C73.8119 12.1817 72.8767 12.1333 72.1152 12.5187C69.9962 13.5912 67.5418 14.0068 65.1432 13.6987C64.2728 13.587 63.4098 13.944 62.915 14.6098Z" fill="#77DD00"/>
<path d="M94.9261 32.3037C93.7359 30.3699 93.2603 28.1242 93.5742 25.924C93.6869 25.1333 93.296 24.3532 92.5771 23.904L74.5307 12.6307C73.8119 12.1817 72.8767 12.1333 72.1152 12.5187C69.9962 13.5912 67.5421 14.0068 65.1433 13.6987C64.2728 13.587 63.4101 13.944 62.9151 14.6098L61.4739 16.5484L84.0278 30.4845C84.7467 30.9335 85.1378 31.7136 85.0249 32.5044C84.711 34.7046 85.1866 36.9504 86.3767 38.8842C86.8085 39.5859 86.7616 40.4526 86.2666 41.1184L55.9677 81.8743C56.6469 81.847 57.3304 81.8741 58.0093 81.9613C58.8798 82.0731 59.7425 81.716 60.2375 81.0504L94.8161 34.5379C95.3109 33.8721 95.358 33.0054 94.9261 32.3037Z" fill="#73CC00"/>
<path d="M66.872 54.8731C73.7116 54.8731 79.2562 49.7906 79.2562 43.521C79.2562 37.2514 73.7116 32.1688 66.872 32.1688C60.0324 32.1688 54.4878 37.2514 54.4878 43.521C54.4878 49.7906 60.0324 54.8731 66.872 54.8731Z" fill="#B6FA4C"/>
<path d="M104.883 108.433H9.47697C6.22407 108.433 3.58711 106.016 3.58711 103.034V49.6032C3.58711 46.6214 6.22407 44.2042 9.47697 44.2042H104.883C108.136 44.2042 110.773 46.6214 110.773 49.6032V103.034C110.774 106.016 108.136 108.433 104.883 108.433Z" fill="#FFB125"/>
<path d="M104.883 44.204H94.1683C97.4212 44.204 100.058 46.6212 100.058 49.6032V103.034C100.058 106.016 97.4212 108.433 94.1683 108.433H104.883C108.136 108.433 110.773 106.016 110.773 103.034V49.6032C110.774 46.6212 108.136 44.204 104.883 44.204Z" fill="#FF901D"/>
<path d="M114.279 65.9978H92.8059C86.5879 65.9978 81.5472 70.6184 81.5472 76.3182C81.5472 82.0181 86.5879 86.6387 92.8059 86.6387H114.279C115.458 86.6387 116.413 85.7628 116.413 84.6826V67.9537C116.413 66.8737 115.458 65.9978 114.279 65.9978Z" fill="#FF6D3A"/>
<path d="M114.279 65.9978H103.526C104.705 65.9978 105.66 66.8737 105.66 67.9539V82.0449C105.66 83.1971 104.641 84.131 103.384 84.131H92.8059C87.0513 84.131 82.3082 80.1725 81.6327 75.0644C81.5784 75.4756 81.5472 75.8935 81.5472 76.3182C81.5472 82.018 86.5879 86.6389 92.8061 86.6389H103.526H114.279C115.458 86.6389 116.413 85.7632 116.413 84.6828V82.1749V67.9539C116.413 66.8737 115.458 65.9978 114.279 65.9978Z" fill="#ED5729"/>
<path d="M104.883 44.204H9.47697C6.22407 44.204 3.58711 46.6212 3.58711 49.603V55.5196H110.774V49.603C110.774 46.6212 108.136 44.204 104.883 44.204Z" fill="#FF6D3A"/>
<path d="M109.768 46.5845C109.556 46.2972 109.315 46.0297 109.048 45.7854C109.045 45.7827 109.042 45.7799 109.039 45.7771C108.775 45.5362 108.486 45.3179 108.176 45.1261C108.098 45.0775 108.018 45.0307 107.937 44.9856C107.817 44.9186 107.693 44.8567 107.567 44.7974C107.485 44.7589 107.403 44.7224 107.319 44.6874C106.576 44.3778 105.752 44.2038 104.883 44.2038H94.1685C97.4212 44.204 100.058 46.6212 100.058 49.603V55.5196H110.773V49.6032C110.773 48.6715 110.516 47.7947 110.062 47.0296C109.972 46.8766 109.873 46.728 109.768 46.5845Z" fill="#ED5729"/>
<path d="M9.47697 108.433H104.883C108.136 108.433 110.773 106.016 110.773 103.034V97.1173H3.58688V103.034C3.58688 106.016 6.22408 108.433 9.47697 108.433Z" fill="#FF6D3A"/>
<path d="M100.058 97.1171V103.034C100.058 103.037 100.058 103.04 100.058 103.043C100.057 103.541 99.6021 103.94 99.0583 103.94H9.47697C6.22407 103.94 3.58711 101.522 3.58711 98.5406V103.034C3.58711 106.016 6.22407 108.433 9.47697 108.433H94.1685H104.884C105 108.433 105.115 108.429 105.23 108.423C105.266 108.421 105.301 108.418 105.337 108.415C105.417 108.41 105.496 108.403 105.575 108.394C105.614 108.39 105.653 108.386 105.693 108.381C105.771 108.371 105.849 108.359 105.926 108.347C105.961 108.341 105.995 108.336 106.03 108.33C106.139 108.31 106.248 108.288 106.355 108.263C106.355 108.263 106.355 108.263 106.356 108.263C106.403 108.252 106.449 108.238 106.495 108.226C106.728 108.166 106.956 108.094 107.176 108.009C107.264 107.974 107.351 107.938 107.437 107.901C107.523 107.863 107.607 107.823 107.691 107.781L107.691 107.781C107.858 107.698 108.02 107.608 108.176 107.511L108.177 107.511L108.177 107.511C108.31 107.428 108.439 107.34 108.564 107.248C108.57 107.243 108.576 107.239 108.582 107.235C108.708 107.141 108.831 107.042 108.948 106.939C109.087 106.817 109.219 106.69 109.345 106.557V106.556C109.541 106.348 109.72 106.126 109.88 105.892C109.884 105.886 109.889 105.88 109.893 105.873C109.952 105.786 110.009 105.698 110.062 105.608C110.062 105.608 110.062 105.608 110.062 105.607V105.607C110.205 105.367 110.327 105.115 110.429 104.854C110.441 104.825 110.451 104.795 110.462 104.765C110.487 104.698 110.51 104.631 110.532 104.563C110.543 104.529 110.554 104.494 110.564 104.46C110.584 104.391 110.603 104.323 110.621 104.254C110.628 104.222 110.637 104.191 110.644 104.159C110.667 104.059 110.688 103.959 110.705 103.858C110.705 103.857 110.706 103.857 110.706 103.856C110.706 103.856 110.706 103.855 110.706 103.855C110.725 103.736 110.739 103.616 110.75 103.495C110.753 103.464 110.756 103.434 110.758 103.403C110.767 103.281 110.773 103.158 110.773 103.034V98.5409V97.1173H100.058V97.1171Z" fill="#ED5729"/>
<path d="M93.2064 81.111C96.0935 81.111 98.434 78.9656 98.434 76.3191C98.434 73.6726 96.0935 71.5272 93.2064 71.5272C90.3194 71.5272 87.9789 73.6726 87.9789 76.3191C87.9789 78.9656 90.3194 81.111 93.2064 81.111Z" fill="#F2F2F2"/>
<path d="M114.279 64.4305H112.483V55.5198V49.6032C112.483 47.2558 111.209 45.1774 109.262 43.9146V41.8957C109.262 38.9671 106.663 36.5847 103.469 36.5847H102.128L107.258 29.6839C108.978 27.3709 108.324 24.2065 105.8 22.63L70.9883 0.883231C69.7661 0.11946 68.2928 -0.162416 66.8387 0.0904557C65.3854 0.342898 64.1261 1.09893 63.2931 2.21956L33.2459 42.6367H24.8846L26.9018 23.9173C26.9246 23.7063 27.0741 23.5235 27.2827 23.4515C29.8817 22.5533 32.134 20.8758 33.6247 18.7282C33.7421 18.5591 33.9636 18.4624 34.1928 18.4837L47.3073 19.6714C48.2476 19.7549 49.0841 19.1272 49.1769 18.2656C49.2697 17.4041 48.5832 16.6369 47.6434 16.5518L34.5289 15.3642C33.0066 15.2275 31.5549 15.8705 30.7393 17.0453C29.6433 18.6244 27.9872 19.8576 26.0764 20.5181C24.638 21.0152 23.6504 22.1994 23.4985 23.609L21.4482 42.6365H19.2678L22.4581 13.0301C22.5729 11.9645 23.6105 11.1816 24.7744 11.2883L51.2762 13.6882C52.216 13.7713 53.053 13.144 53.1458 12.2824C53.2386 11.4209 52.5521 10.6537 51.6123 10.5686L25.1105 8.16881C22.0721 7.89402 19.355 9.93612 19.0547 12.7218L16.4832 36.5845H12.1039C8.90931 36.5845 6.31009 38.9669 6.31009 41.8955V43.2726C3.69657 44.3756 1.87688 46.7974 1.87688 49.603V55.5196V97.1169V103.033C1.87688 106.875 5.2861 110 9.47697 110H104.883C109.074 110 112.483 106.875 112.483 103.033V97.1169V88.2064H114.279C116.399 88.2064 118.123 86.6258 118.123 84.683V67.9541C118.123 66.0111 116.399 64.4305 114.279 64.4305ZM103.469 39.7193C104.778 39.7193 105.843 40.6956 105.843 41.8957V42.6943C105.528 42.6577 105.209 42.6369 104.883 42.6369H97.6284L99.7971 39.7195H103.469V39.7193ZM66.1189 3.98472C66.4377 3.55611 66.9193 3.26693 67.4753 3.17025C67.6082 3.14726 67.7415 3.13566 67.874 3.13566C68.2951 3.13566 68.7067 3.25124 69.0625 3.47339L103.874 25.2199C104.84 25.823 105.09 27.0334 104.432 27.9181L93.4903 42.6363H90.8643L96.2289 35.4203C97.0989 34.25 97.1707 32.7607 96.4155 31.5333C95.4119 29.9027 95.005 27.9826 95.2699 26.1266C95.4667 24.7458 94.8039 23.3978 93.5402 22.6085L75.4937 11.3352C74.2297 10.5456 72.6187 10.4732 71.2888 11.1463C69.5017 12.0508 67.4033 12.406 65.3807 12.1464C63.8807 11.9535 62.3593 12.5744 61.5022 13.727L40.0102 42.6365H37.3843L66.1189 3.98472ZM66.872 30.602C59.4257 30.602 53.3131 35.9243 52.8151 42.6365H44.1481L64.3276 15.4924C64.3279 15.4924 64.3279 15.4924 64.3279 15.4924C64.4425 15.3379 64.6325 15.246 64.8278 15.246C64.8538 15.246 64.8798 15.2477 64.9058 15.2509C67.6569 15.6037 70.5104 15.1212 72.9414 13.8908C73.1326 13.7936 73.3783 13.8076 73.5676 13.9258L91.6143 25.1993C91.8032 25.3175 91.9071 25.522 91.8789 25.7205C91.5187 28.2447 92.0723 30.8559 93.437 33.0735C93.5465 33.2517 93.5331 33.4798 93.4033 33.6549L86.7264 42.6363H80.9296C80.4311 35.9243 74.3188 30.602 66.872 30.602ZM77.5005 42.6367H56.2438C56.7336 37.6547 61.3119 33.737 66.872 33.737C72.4323 33.7368 77.0108 37.6547 77.5005 42.6367ZM9.72986 41.8955C9.72986 40.6954 10.7946 39.7191 12.1039 39.7191H16.1454L15.8311 42.6365H9.72986V41.8955ZM5.29665 49.603C5.29665 47.4902 7.17189 45.7713 9.47697 45.7713H104.883C107.189 45.7713 109.064 47.4902 109.064 49.603V53.9523H5.29665V49.603ZM109.064 95.5498H25.4661C24.5215 95.5498 23.7563 96.2515 23.7563 97.1171C23.7563 97.9827 24.5218 98.6844 25.4661 98.6844H109.064V103.034C109.064 105.146 107.189 106.865 104.883 106.865H9.47697C7.17189 106.865 5.29665 105.146 5.29665 103.034V98.6844H14.5174C15.462 98.6844 16.2272 97.9827 16.2272 97.1171C16.2272 96.2515 15.4617 95.5498 14.5174 95.5498H5.29665V57.0871H109.064V64.4305H92.8059H92.8056C87.6831 64.4305 83.2459 67.1676 81.1401 71.1295C81.133 71.1429 81.1251 71.1557 81.1178 71.1691C81.1 71.2028 81.0845 71.2378 81.0672 71.2718C80.8164 71.7601 80.5984 72.2656 80.421 72.7873C80.4205 72.7888 80.4201 72.7901 80.4196 72.7916C80.0411 73.9064 79.8369 75.0908 79.8369 76.3185C79.8369 82.8736 85.6546 88.2064 92.8054 88.2064H92.8056H109.063V95.5498H109.064ZM114.704 84.6828C114.704 84.8972 114.513 85.0716 114.279 85.0716H110.773H92.8059C89.186 85.0716 86.0299 83.2156 84.411 80.4873C84.3374 80.3633 84.2671 80.2374 84.1999 80.11C84.0656 79.855 83.9444 79.5931 83.8373 79.325C83.4618 78.387 83.257 77.3742 83.257 76.3185C83.257 75.2627 83.462 74.2499 83.8373 73.3119C83.9446 73.044 84.0658 72.7821 84.1999 72.5269C84.2671 72.3995 84.3374 72.2736 84.411 72.1496C86.0299 69.4213 89.186 67.5653 92.8059 67.5653H110.773H114.279C114.513 67.5653 114.704 67.7397 114.704 67.9541V84.6828Z" fill="black"/>
<path d="M93.2067 69.9591C89.3812 69.9591 86.2692 72.812 86.2692 76.3185C86.2692 79.8249 89.3812 82.6776 93.2067 82.6776C97.0322 82.6776 100.144 79.8249 100.144 76.3185C100.144 72.812 97.0322 69.9591 93.2067 69.9591ZM93.2067 79.5428C91.267 79.5428 89.6889 78.0963 89.6889 76.3185C89.6889 74.5406 91.267 73.0939 93.2067 73.0939C95.1464 73.0939 96.7244 74.5404 96.7244 76.3185C96.7244 78.0965 95.1464 79.5428 93.2067 79.5428Z" fill="black"/>
<path d="M187.452 70.15L177.352 105H172.252L164.152 76.95L155.752 105L150.702 105.05L140.952 70.15H145.802L153.402 99.7L161.802 70.15H166.902L174.902 99.6L182.552 70.15H187.452ZM190.731 91.2C190.731 88.4 191.298 85.95 192.431 83.85C193.564 81.7167 195.114 80.0667 197.081 78.9C199.081 77.7333 201.298 77.15 203.731 77.15C206.131 77.15 208.214 77.6667 209.981 78.7C211.748 79.7333 213.064 81.0333 213.931 82.6V77.6H218.531V105H213.931V99.9C213.031 101.5 211.681 102.833 209.881 103.9C208.114 104.933 206.048 105.45 203.681 105.45C201.248 105.45 199.048 104.85 197.081 103.65C195.114 102.45 193.564 100.767 192.431 98.6C191.298 96.4333 190.731 93.9667 190.731 91.2ZM213.931 91.25C213.931 89.1833 213.514 87.3833 212.681 85.85C211.848 84.3167 210.714 83.15 209.281 82.35C207.881 81.5167 206.331 81.1 204.631 81.1C202.931 81.1 201.381 81.5 199.981 82.3C198.581 83.1 197.464 84.2667 196.631 85.8C195.798 87.3333 195.381 89.1333 195.381 91.2C195.381 93.3 195.798 95.1333 196.631 96.7C197.464 98.2333 198.581 99.4167 199.981 100.25C201.381 101.05 202.931 101.45 204.631 101.45C206.331 101.45 207.881 101.05 209.281 100.25C210.714 99.4167 211.848 98.2333 212.681 96.7C213.514 95.1333 213.931 93.3167 213.931 91.25ZM230.77 68V105H226.22V68H230.77ZM243.075 68V105H238.525V68H243.075ZM275.829 90.25C275.829 91.1167 275.779 92.0333 275.679 93H253.779C253.946 95.7 254.863 97.8167 256.529 99.35C258.229 100.85 260.279 101.6 262.679 101.6C264.646 101.6 266.279 101.15 267.579 100.25C268.913 99.3167 269.846 98.0833 270.379 96.55H275.279C274.546 99.1833 273.079 101.333 270.879 103C268.679 104.633 265.946 105.45 262.679 105.45C260.079 105.45 257.746 104.867 255.679 103.7C253.646 102.533 252.046 100.883 250.879 98.75C249.713 96.5833 249.129 94.0833 249.129 91.25C249.129 88.4167 249.696 85.9333 250.829 83.8C251.963 81.6667 253.546 80.0333 255.579 78.9C257.646 77.7333 260.013 77.15 262.679 77.15C265.279 77.15 267.579 77.7167 269.579 78.85C271.579 79.9833 273.113 81.55 274.179 83.55C275.279 85.5167 275.829 87.75 275.829 90.25ZM271.129 89.3C271.129 87.5667 270.746 86.0833 269.979 84.85C269.213 83.5833 268.163 82.6333 266.829 82C265.529 81.3333 264.079 81 262.479 81C260.179 81 258.213 81.7333 256.579 83.2C254.979 84.6667 254.063 86.7 253.829 89.3H271.129ZM287.385 81.35V97.5C287.385 98.8333 287.669 99.7833 288.235 100.35C288.802 100.883 289.785 101.15 291.185 101.15H294.535V105H290.435C287.902 105 286.002 104.417 284.735 103.25C283.469 102.083 282.835 100.167 282.835 97.5V81.35H279.285V77.6H282.835V70.7H287.385V77.6H294.535V81.35H287.385Z" fill="white"/>
</svg>
